<svg version="1.1" id="Layer_1" xmlns="http://www.w3.org/2000/svg" xmlns:xlink="http://www.w3.org/1999/xlink" x="0px" y="0px"
	 width="100%" viewBox="0 0 840 779" enable-background="new 0 0 840 779" xml:space="preserve">
<path fill="#000000" opacity="1.000000" stroke="none" 
	d="
M1.000004,731.000000 
	C1.000000,502.973145 1.000000,274.946289 1.368368,46.357639 
	C2.130037,45.285675 2.739194,44.830509 2.885331,44.257301 
	C7.534113,26.023006 18.401819,13.053041 35.761497,5.746001 
	C40.359001,3.810817 45.245953,2.563280 50.000000,1.000000 
	C277.026855,1.000000 504.053711,1.000000 731.675659,1.384763 
	C758.556396,5.227225 780.865723,27.753981 780.891174,56.302925 
	C781.088501,277.401154 780.985596,498.499664 781.039124,719.598083 
	C781.042053,731.687622 778.955627,743.079651 772.220154,753.343750 
	C765.836487,763.071960 757.813477,770.865051 746.715698,775.027527 
	C742.162659,776.735291 737.572998,778.345459 733.000000,780.000000 
	C505.306458,780.000000 277.612946,780.000000 49.327667,779.617981 
	C42.958496,777.417419 36.681427,776.495850 31.498943,773.609192 
	C16.955513,765.508606 6.844896,753.533752 2.902439,736.933167 
	C2.798659,736.496155 1.657419,736.305542 0.999996,736.000000 
	C1.000000,735.555542 1.000000,735.111145 1.339802,734.249390 
	C1.453072,732.888000 1.226540,731.944031 1.000004,731.000000 
M514.561279,285.000000 
	C507.993500,286.000214 501.300964,286.496307 494.879059,288.085846 
	C463.074402,295.958130 437.273346,312.479797 419.932770,340.969330 
	C419.057831,342.406769 417.267303,343.286926 415.903076,344.426575 
	C415.534241,344.106567 415.165405,343.786530 414.796570,343.466492 
	C414.796570,327.044464 414.796570,310.622437 414.796570,294.293152 
	C378.345123,294.293152 342.275116,294.293152 306.286224,294.293152 
	C306.286224,417.650848 306.286224,540.715149 306.286224,663.712891 
	C344.309631,663.712891 382.046112,663.712891 420.000000,663.712891 
	C420.000000,661.782593 420.000000,660.137878 420.000000,658.493103 
	C420.000000,624.496033 419.870056,590.498413 420.037354,556.502136 
	C420.197723,523.919006 420.690735,491.337585 420.987762,458.754944 
	C421.101410,446.287415 423.644287,434.188904 428.221069,422.775116 
	C434.743073,406.510223 445.525635,394.189026 463.180206,388.872894 
	C476.108795,384.979858 489.054474,383.936829 502.338379,385.989532 
	C516.339233,388.152985 527.966370,393.943329 536.088257,406.193176 
	C546.561523,421.989410 549.615479,439.934967 549.771118,458.014801 
	C550.346558,524.837341 550.000000,591.667908 550.000000,658.495422 
	C550.000000,660.260437 550.000000,662.025452 550.000000,663.711914 
	C588.644836,663.711914 626.714600,663.711914 664.999939,663.711914 
	C664.999939,662.446655 665.003906,661.468506 664.999451,660.490417 
	C664.666748,588.077515 664.408630,515.664062 663.917542,443.252197 
	C663.845154,432.580444 662.801208,421.905853 661.973877,411.250671 
	C660.453003,391.662415 656.345032,372.612579 648.950928,354.387024 
	C641.543762,336.128967 630.754028,320.098907 614.705200,308.405609 
	C593.293518,292.804901 568.614136,286.415100 542.509583,285.073395 
	C533.530762,284.611908 524.508301,285.000000 514.561279,285.000000 
M174.500000,294.000000 
	C155.737228,294.000000 136.974457,294.000000 118.285614,294.000000 
	C118.285614,417.643524 118.285614,540.710876 118.285614,663.712036 
	C156.309357,663.712036 194.046768,663.712036 231.714417,663.712036 
	C231.714417,540.356506 231.714417,417.289124 231.714417,294.000000 
	C212.786453,294.000000 194.143219,294.000000 174.500000,294.000000 
M217.529984,125.017563 
	C202.407486,112.530701 185.466782,106.898911 165.642914,109.855270 
	C151.500793,111.964294 139.259735,117.724937 129.253098,127.468384 
	C115.831772,140.536682 108.683586,156.481659 108.873543,175.751556 
	C109.105453,199.277344 119.225014,217.377151 138.100784,230.362869 
	C153.495956,240.954086 170.735886,244.378662 189.411011,240.104584 
	C204.928864,236.553085 217.350586,228.352539 227.081665,216.215958 
	C234.616028,206.819107 239.604431,195.804718 240.857834,183.770645 
	C242.496414,168.038223 239.838913,152.845337 230.714432,139.553024 
	C227.181702,134.406647 222.300659,130.185806 217.529984,125.017563 
z"/>
<path fill="#FFFFFF" opacity="1.000000" stroke="none" 
	d="
M733.468628,780.000000 
	C737.572998,778.345459 742.162659,776.735291 746.715698,775.027527 
	C757.813477,770.865051 765.836487,763.071960 772.220154,753.343750 
	C778.955627,743.079651 781.042053,731.687622 781.039124,719.598083 
	C780.985596,498.499664 781.088501,277.401154 780.891174,56.302925 
	C780.865723,27.753981 758.556396,5.227225 732.135376,1.384763 
	C768.312134,1.000000 804.624329,1.000000 841.000000,1.000000 
	C841.000000,214.687561 841.000000,428.375122 840.641846,642.427002 
	C836.511658,628.518677 821.768616,625.105713 811.078003,629.520935 
	C802.037292,633.254639 798.726440,640.700012 798.932556,650.299866 
	C799.227539,664.036133 812.109619,672.585327 825.070923,669.445862 
	C833.413452,667.425293 838.248962,661.787292 841.000000,654.000000 
	C841.000000,695.921326 841.000000,737.842712 841.000000,780.000000 
	C805.312805,780.000000 769.625061,780.000000 733.468628,780.000000 
z"/>
<path fill="#FFFFFF" opacity="1.000000" stroke="none" 
	d="
M49.531342,1.000000 
	C45.245953,2.563280 40.359001,3.810817 35.761497,5.746001 
	C18.401819,13.053041 7.534113,26.023006 2.885331,44.257301 
	C2.739194,44.830509 2.130037,45.285675 1.368368,45.897934 
	C1.000000,31.070158 1.000000,16.140316 1.000000,1.000000 
	C17.020281,1.000000 33.041481,1.000000 49.531342,1.000000 
z"/>
<path fill="#FFFFFF" opacity="1.000000" stroke="none" 
	d="
M0.999996,736.468628 
	C1.657419,736.305542 2.798659,736.496155 2.902439,736.933167 
	C6.844896,753.533752 16.955513,765.508606 31.498943,773.609192 
	C36.681427,776.495850 42.958496,777.417419 48.867962,779.617981 
	C33.076469,780.000000 17.152941,780.000000 1.000000,780.000000 
	C1.000000,765.646606 1.000000,751.291931 0.999996,736.468628 
z"/>
<path fill="#000000" opacity="1.000000" stroke="none" 
	d="
M841.000000,653.541931 
	C838.248962,661.787292 833.413452,667.425293 825.070923,669.445862 
	C812.109619,672.585327 799.227539,664.036133 798.932556,650.299866 
	C798.726440,640.700012 802.037292,633.254639 811.078003,629.520935 
	C821.768616,625.105713 836.511658,628.518677 840.641846,642.895630 
	C841.000000,646.361267 841.000000,649.722595 841.000000,653.541931 
M803.000000,648.547791 
	C802.175415,658.320984 811.026367,665.573914 818.772095,666.112671 
	C828.965637,666.821777 836.905579,658.108948 836.943359,649.952332 
	C836.999939,637.748047 829.462341,632.105286 819.577148,631.138306 
	C811.612366,630.359253 803.604065,638.864197 803.000000,648.547791 
z"/>
<path fill="#FFFFFF" opacity="1.000000" stroke="none" 
	d="
M1.000004,731.375000 
	C1.226540,731.944031 1.453072,732.888000 1.339802,733.916016 
	C1.000000,733.250000 1.000000,732.500000 1.000004,731.375000 
z"/>
<path fill="#FFFFFF" opacity="1.000000" stroke="none" 
	d="
M515.033508,285.000000 
	C524.508301,285.000000 533.530762,284.611908 542.509583,285.073395 
	C568.614136,286.415100 593.293518,292.804901 614.705200,308.405609 
	C630.754028,320.098907 641.543762,336.128967 648.950928,354.387024 
	C656.345032,372.612579 660.453003,391.662415 661.973877,411.250671 
	C662.801208,421.905853 663.845154,432.580444 663.917542,443.252197 
	C664.408630,515.664062 664.666748,588.077515 664.999451,660.490417 
	C665.003906,661.468506 664.999939,662.446655 664.999939,663.711914 
	C626.714600,663.711914 588.644836,663.711914 550.000000,663.711914 
	C550.000000,662.025452 550.000000,660.260437 550.000000,658.495422 
	C550.000000,591.667908 550.346558,524.837341 549.771118,458.014801 
	C549.615479,439.934967 546.561523,421.989410 536.088257,406.193176 
	C527.966370,393.943329 516.339233,388.152985 502.338379,385.989532 
	C489.054474,383.936829 476.108795,384.979858 463.180206,388.872894 
	C445.525635,394.189026 434.743073,406.510223 428.221069,422.775116 
	C423.644287,434.188904 421.101410,446.287415 420.987762,458.754944 
	C420.690735,491.337585 420.197723,523.919006 420.037354,556.502136 
	C419.870056,590.498413 420.000000,624.496033 420.000000,658.493103 
	C420.000000,660.137878 420.000000,661.782593 420.000000,663.712891 
	C382.046112,663.712891 344.309631,663.712891 306.286224,663.712891 
	C306.286224,540.715149 306.286224,417.650848 306.286224,294.293152 
	C342.275116,294.293152 378.345123,294.293152 414.796570,294.293152 
	C414.796570,310.622437 414.796570,327.044464 414.796570,343.466492 
	C415.165405,343.786530 415.534241,344.106567 415.903076,344.426575 
	C417.267303,343.286926 419.057831,342.406769 419.932770,340.969330 
	C437.273346,312.479797 463.074402,295.958130 494.879059,288.085846 
	C501.300964,286.496307 507.993500,286.000214 515.033508,285.000000 
z"/>
<path fill="#FFFFFF" opacity="1.000000" stroke="none" 
	d="
M175.000000,294.000000 
	C194.143219,294.000000 212.786453,294.000000 231.714417,294.000000 
	C231.714417,417.289124 231.714417,540.356506 231.714417,663.712036 
	C194.046768,663.712036 156.309357,663.712036 118.285614,663.712036 
	C118.285614,540.710876 118.285614,417.643524 118.285614,294.000000 
	C136.974457,294.000000 155.737228,294.000000 175.000000,294.000000 
z"/>
<path fill="#FFFFFF" opacity="1.000000" stroke="none" 
	d="
M217.781921,125.280441 
	C222.300659,130.185806 227.181702,134.406647 230.714432,139.553024 
	C239.838913,152.845337 242.496414,168.038223 240.857834,183.770645 
	C239.604431,195.804718 234.616028,206.819107 227.081665,216.215958 
	C217.350586,228.352539 204.928864,236.553085 189.411011,240.104584 
	C170.735886,244.378662 153.495956,240.954086 138.100784,230.362869 
	C119.225014,217.377151 109.105453,199.277344 108.873543,175.751556 
	C108.683586,156.481659 115.831772,140.536682 129.253098,127.468384 
	C139.259735,117.724937 151.500793,111.964294 165.642914,109.855270 
	C185.466782,106.898911 202.407486,112.530701 217.781921,125.280441 
z"/>
<path fill="#FFFFFF" opacity="1.000000" stroke="none" 
	d="
M803.000000,648.107422 
	C803.604065,638.864197 811.612366,630.359253 819.577148,631.138306 
	C829.462341,632.105286 836.999939,637.748047 836.943359,649.952332 
	C836.905579,658.108948 828.965637,666.821777 818.772095,666.112671 
	C811.026367,665.573914 802.175415,658.320984 803.000000,648.107422 
M826.910461,638.394836 
	C822.015198,637.776306 817.119873,637.157776 812.151123,636.529968 
	C812.151123,644.976990 812.151123,652.259705 812.151123,659.957703 
	C813.494995,659.882385 814.669556,659.816528 816.165405,659.732666 
	C816.165405,656.625793 816.165405,653.870911 816.165405,651.084778 
	C823.450012,649.960754 821.523926,662.564941 829.828857,659.578674 
	C827.911743,656.462463 826.043701,653.426025 824.127930,650.312012 
	C829.573608,648.527649 830.701721,644.266418 826.910461,638.394836 
z"/>
<path fill="#000000" opacity="1.000000" stroke="none" 
	d="
M827.210693,638.700989 
	C830.701721,644.266418 829.573608,648.527649 824.127930,650.312012 
	C826.043701,653.426025 827.911743,656.462463 829.828857,659.578674 
	C821.523926,662.564941 823.450012,649.960754 816.165405,651.084778 
	C816.165405,653.870911 816.165405,656.625793 816.165405,659.732666 
	C814.669556,659.816528 813.494995,659.882385 812.151123,659.957703 
	C812.151123,652.259705 812.151123,644.976990 812.151123,636.529968 
	C817.119873,637.157776 822.015198,637.776306 827.210693,638.700989 
M820.323242,641.000000 
	C818.917480,641.078369 817.511719,641.156738 815.947510,641.243896 
	C816.042725,643.360229 816.120422,645.088196 816.206421,646.999939 
	C818.005798,646.999939 819.593140,647.366333 820.883850,646.904236 
	C822.390076,646.364929 823.637207,645.101990 824.996704,644.153015 
	C823.740540,643.102051 822.484314,642.051025 820.323242,641.000000 
z"/>
<path fill="#FFFFFF" opacity="1.000000" stroke="none" 
	d="
M820.775696,641.000000 
	C822.484314,642.051025 823.740540,643.102051 824.996704,644.153015 
	C823.637207,645.101990 822.390076,646.364929 820.883850,646.904236 
	C819.593140,647.366333 818.005798,646.999939 816.206421,646.999939 
	C816.120422,645.088196 816.042725,643.360229 815.947510,641.243896 
	C817.511719,641.156738 818.917480,641.078369 820.775696,641.000000 
z"/>
</svg>